<?xml version="1.0" encoding="UTF-8"?>
<svg width="500px" height="500px" viewBox="0 0 500 500" version="1.1" xmlns="http://www.w3.org/2000/svg" xmlns:xlink="http://www.w3.org/1999/xlink">
    <!-- Generator: Sketch 42 (36781) - http://www.bohemiancoding.com/sketch -->
    <title>Artboard</title>
    <desc>Created with Sketch.</desc>
    <defs></defs>
    <g id="Page-1" stroke="none" stroke-width="1" fill="none" fill-rule="evenodd">
        <g id="Artboard" fill="#FFFFFF">
            <g id="snapshotter" transform="translate(2.000000, 86.000000)">
                <path d="M409.83719,261.526944 L408.683708,263.312599 L458.713171,295.693237 L467.358611,282.309613 L423.910437,254.188592 L423.910437,177.141025 L407.98824,177.141025 L407.98824,261.526944 L409.83719,261.526944 Z M413.776353,327.531582 C368.866251,327.531582 332.45942,291.658568 332.45942,247.406963 C332.45942,203.155358 368.866251,167.282345 413.776353,167.282345 C458.686455,167.282345 495.093287,203.155358 495.093287,247.406963 C495.093287,291.658568 458.686455,327.531582 413.776353,327.531582 Z" id="Combined-Shape"></path>
                <path d="M346.288572,317.947778 L10.0101032,317.947778 C4.49167126,317.947778 0.0180982488,313.466743 0.0180982488,307.940955 L0.0180982488,54.1909786 C0.0180982488,48.664363 4.49140731,44.1841559 10.0101032,44.1841559 L87.5912029,44.1841559 C87.5905224,44.1470205 87.5901806,44.1098036 87.5901806,44.0725081 L87.5901806,6.02777065 C87.5901806,2.71459376 90.2734133,0.0287332042 93.5968177,0.0287332042 L230.690968,0.0287332042 C234.008342,0.0287332042 236.697605,2.71925215 236.697605,6.02777065 L236.697605,44.0725081 C236.697605,44.1098045 236.697265,44.1470214 236.696588,44.1841559 L438.32934,44.1841559 C443.847772,44.1841559 448.321345,48.6651905 448.321345,54.1909786 L448.321345,156.52277 C437.766688,152.721818 426.3681,150.647771 414.477883,150.647771 C360.029524,150.647771 315.890408,194.139695 315.890408,247.789701 C315.890408,275.369739 327.555114,300.265286 346.288572,317.947778 Z M331.585926,75.7645588 L331.585926,105.744414 C331.585926,112.36642 336.961956,117.738356 343.593624,117.738356 L411.7894,117.738356 C418.423965,117.738356 423.797098,112.368485 423.797098,105.744414 L423.797098,75.7645588 C423.797098,69.1425523 418.421068,63.7706167 411.7894,63.7706167 L343.593624,63.7706167 C336.959058,63.7706167 331.585926,69.1404875 331.585926,75.7645588 Z M161.574931,288.016844 C220.022753,288.016844 267.404074,240.622882 267.404074,182.159467 C267.404074,123.696052 220.022753,76.3020896 161.574931,76.3020896 C103.127109,76.3020896 55.745787,123.696052 55.745787,182.159467 C55.745787,240.622882 103.127109,288.016844 161.574931,288.016844 Z" id="Combined-Shape" fill-rule="nonzero"></path>
            </g>
        </g>
    </g>
</svg>